<svg xmlns="http://www.w3.org/2000/svg" version="1.1" viewBox="146.53 63.11 1185.11 482.2"><path d="M856.958 220.23c1.575 1.395 3.117 2.819 4.649 4.26l1.163 1.039c14.348 13.344 20.448 33.664 21.796 52.533h-144.133c3.112 29.052 10.136 56.571 33.514 76.08 13.194 10.501 29.324 16.886 46.205 17.67l1.99 0.102c14.983 0.399 30.374 -3.831 41.735 -13.933A202.806 202.806 0 0 0 866.709 355.23l1.714 -1.634c3.693 -3.893 6.895 -7.855 9.765 -12.397 0.916 2.75 -0.177 4.732 -1.156 7.334l-0.608 1.624c-4.732 12.226 -11.477 23.036 -20.557 32.496l-1.605 1.726c-4.371 4.57 -9.048 8.23 -14.339 11.666l-2.083 1.353c-19.899 12.095 -45.496 15.383 -68.105 10.284q-1.579 -0.389 -3.154 -0.795l-1.528 -0.383c-14.909 -3.874 -28.293 -11.31 -39.926 -21.3l-1.654 -1.415c-14.386 -12.61 -23.732 -29.08 -29.117 -47.293l-0.453 -1.5c-2.82 -10.027 -3.568 -20.14 -3.493 -30.508l0.006 -1.763c0.151 -28.42 8.3 -55.578 28.573 -76.162 35.421 -34.832 99.852 -38.957 137.969 -6.333" fill="#ffffff"/><path d="M764.031 63.138c17.1 0 17.1 0 23.438 0.758l2.245 0.257C847.437 71.118 904.033 99.494 941.964 144.133q0.851 0.971 1.704 1.941c14.041 16.04 25.059 33.929 34.648 52.906l0.746 1.47c9.611 19.13 15.612 40.077 19.663 61.03h0.638l0.281 -1.338c10.046 -47.527 31.198 -88.836 64.332 -124.3l1.247 -1.341a98.214 98.214 0 0 1 7.571 -7.202c1.636 -1.411 3.2 -2.893 4.774 -4.371 4.133 -3.823 8.508 -7.286 12.994 -10.682l1.154 -0.877c35.954 -27.217 78.67 -43.346 123.488 -47.752l1.527 -0.155c5.802 -0.504 11.445 -0.323 17.327 -0.323v92.474h-0.638l-0.189 -2.314c-0.849 -9.559 -2.697 -18.276 -6.826 -27.022l-1.046 -2.242c-8.278 -16.959 -23.108 -29.171 -40.695 -35.545A107.143 107.143 0 0 0 1178.571 86.735l-1.605 -0.436c-22.842 -5.207 -44.466 6.617 -63.219 18.249 -10.765 6.792 -21.303 14.204 -30.625 22.901 -1.239 1.145 -2.499 2.245 -3.779 3.343 -3.082 2.69 -5.985 5.552 -8.877 8.445a660.714 660.714 0 0 1 -2.723 2.699c-3.944 3.935 -7.511 8.047 -10.983 12.401a345.663 345.663 0 0 1 -2.015 2.379c-8.807 10.426 -16.253 22.044 -22.857 33.973l-0.875 1.557C1011.174 227.807 1000.946 269.885 1002.551 310.587l0.08 2.039c2.435 55.804 23.814 109.629 62.104 150.587 1.469 1.579 2.886 3.193 4.302 4.82 5.929 6.598 12.68 12.425 19.611 17.937q1.012 0.844 2.02 1.691c13.316 11.081 28.403 20.247 44.011 27.725 1.119 0.537 2.233 1.084 3.347 1.632 9.282 4.458 18.605 6.835 28.906 6.779l2.025 -0.008c5.33 -0.077 10.202 -0.665 15.354 -2.105l1.921 -0.516c8.74 -2.626 16.588 -7.066 23.589 -12.877l1.665 -1.348c12.32 -10.465 19.97 -26.319 21.509 -42.336q0.242 -3.029 0.423 -6.061h0.638v86.735c-17.1 0 -17.1 0 -23.438 -0.757l-2.245 -0.258c-43.941 -5.302 -85.705 -22.476 -120.364 -50.006l-1.826 -1.45c-3.646 -2.939 -7.139 -6.013 -10.583 -9.186a148.597 148.597 0 0 0 -4.093 -3.594c-5.531 -4.813 -10.658 -10.149 -15.386 -15.745q-0.848 -0.969 -1.699 -1.936c-14.045 -16.04 -25.063 -33.932 -34.653 -52.911l-0.735 -1.45c-8.349 -16.615 -13.785 -34.302 -17.79 -52.408 -0.698 -3.157 -1.4 -6.239 -2.52 -9.28l-0.222 1.152c-8.329 42.744 -26.651 81.858 -55.103 114.879l-1.003 1.165c-2.048 2.349 -4.182 4.576 -6.413 6.752 -1.085 1.103 -2.078 2.255 -3.068 3.443 -2.79 3.233 -5.967 6.037 -9.143 8.878a246.173 246.173 0 0 0 -2.538 2.325c-4.369 4.024 -8.987 7.683 -13.71 11.278l-1.159 0.883c-35.955 27.213 -78.667 43.341 -123.482 47.746l-1.527 0.155c-5.802 0.504 -11.445 0.323 -17.327 0.323V457.908h0.638l0.167 2.409c1.188 15.133 5.98 27.571 15.139 39.683l1.041 1.4c10.356 12.855 27.585 20.253 43.601 22.197 32.071 2.742 62.55 -19.577 86.097 -38.903l1.821 -1.46c5.399 -4.416 10.341 -9.288 15.279 -14.205l1.036 -1.025A157.526 157.526 0 0 0 941.327 454.082q1.002 -1.194 2.015 -2.379c8.804 -10.422 16.268 -22.039 22.857 -33.973l0.895 -1.608C982.964 387.385 992.592 354.821 994.898 322.066l0.108 -1.527c0.242 -3.528 0.413 -7.055 0.529 -10.59l0.045 -1.336c1.737 -61.018 -22.422 -119.768 -63.182 -164.48 -0.536 -0.603 -1.071 -1.205 -1.624 -1.826 -4.294 -4.805 -8.865 -9.202 -13.682 -13.48l-1.033 -0.926c-16.067 -14.353 -34.353 -26.213 -53.814 -35.426 -0.415 -0.201 -0.829 -0.402 -1.256 -0.608 -15.792 -7.592 -32.446 -8.807 -49.094 -2.992 -17.901 6.577 -32.273 20.049 -40.325 37.256 -4.26 9.591 -6.328 19.028 -6.901 29.482h-0.638z" fill="#ffffff"/><path d="M394.897 196.999c25.571 -1.013 56.778 4.011 76.404 21.751 5.911 5.734 9.506 12.323 9.805 20.647 -0.067 3.886 -0.816 6.642 -2.79 9.965l-1.236 2.193c-10.129 13.261 -31.765 18.891 -46.679 24.157 -11.579 4.094 -23.094 8.279 -34.356 13.191l-1.688 0.735C383.95 294.228 373.895 299.715 365.434 307.398l-1.497 1.318c-9.159 8.532 -14.199 20.172 -14.646 32.643 0.282 12.184 4.501 22.98 13.313 31.529C373.222 381.976 387.403 385.338 401.148 384.566c19.399 -1.599 35.311 -11.666 48.063 -26.02 5.953 -7.073 10.791 -14.92 15.075 -23.087l0.657 -1.242A198.342 198.342 0 0 0 477.041 306.122h2.551l0.004 1.177q0.057 14.214 0.146 28.427 0.045 6.873 0.07 13.747 0.022 5.995 0.066 11.99 0.023 3.17 0.031 6.341c0.006 2.366 0.024 4.732 0.045 7.098l-0.003 2.099c0.064 5.184 0.687 11.066 4.105 15.217 4.121 3.466 8.94 2.787 14.031 2.551 -3.769 7.37 -13.705 10.889 -21.046 13.413 -9.638 2.71 -21.246 2.578 -30.219 -2.085A38.903 38.903 0 0 1 443.24 403.699l-1.592 -1.173C434.154 396.06 432.645 386.186 431.76 376.913l-0.989 0.708C412.151 390.918 393.025 402.263 370.536 407.526l-1.314 0.316c-16.93 3.919 -35.239 2.923 -50.344 -6.056 -11.803 -7.742 -19.951 -19.036 -23.478 -32.765 -2.786 -14.36 -0.453 -28.718 7.701 -40.923 14.67 -20.735 43.314 -28.257 66.078 -36.307 35.461 -12.284 35.461 -12.284 59.592 -39.641 3.922 -8.983 4.123 -19.916 0.621 -29.08 -4.162 -8.982 -10.198 -14.338 -19.346 -17.904 -13.546 -4.865 -29.174 -3.026 -42.082 2.783C358.126 212.621 349.584 220.279 343.112 228.954l-1.684 2.162c-4.574 5.953 -8.196 12.263 -11.709 18.884q-0.694 1.286 -1.39 2.571A1015.944 1015.944 0 0 0 325.255 258.291h-0.638a459.821 459.821 0 0 1 -0.661 -14.82 198.98 198.98 0 0 0 -0.302 -6.885c-0.912 -14.75 -0.912 -14.75 2.159 -18.761 2.955 -2.548 6.258 -4.088 9.891 -5.446 2.191 -0.846 4.235 -1.912 6.311 -3.005 16.368 -8.428 34.68 -11.505 52.882 -12.374" fill="#ffffff"/><path d="M1237.883 177.934q4.63 1.48 9.249 2.99 1.564 0.508 3.131 1.009c9.415 3.007 18.536 6.623 26.523 12.583l2.033 1.515c7.74 7.224 9.927 15.57 10.722 25.909h38.265v6.378h-38.265a60948.342 60948.342 0 0 0 0.167 70.459l0.004 1.497q0.033 11.988 0.052 23.976 0.021 12.307 0.063 24.614 0.026 7.59 0.032 15.18c0.004 3.885 0.018 7.769 0.035 11.654q0.009 2.385 0.007 4.77c-0.001 2.176 0.01 4.352 0.023 6.528l-0.009 1.893c0.061 5.982 1.094 12.845 5.365 17.363 6.339 4.568 13.723 4.904 21.198 3.722 4.381 -0.974 8.591 -2.452 12.439 -4.781C1330.357 404.337 1330.357 404.337 1331.633 404.337c-4.416 10.022 -18.501 17.186 -28.24 20.974 -3.304 1.221 -6.64 2.29 -10.025 3.261l-1.791 0.518c-11.703 2.696 -25.07 1.235 -35.385 -4.906 -5.216 -3.423 -9.544 -8.019 -12.568 -13.469l-0.703 -1.198c-3.833 -7.007 -5.133 -14.607 -5.129 -22.48l-0.006 -1.966q-0.01 -3.258 -0.012 -6.517l-0.013 -4.674q-0.014 -5.032 -0.023 -10.063 -0.014 -7.282 -0.037 -14.564a47492.347 47492.347 0 0 1 -0.117 -45.158l-0.003 -1.429 -0.003 -1.427q-0.026 -11.78 -0.064 -23.56 -0.024 -7.263 -0.034 -14.525 -0.008 -5.566 -0.031 -11.131 -0.006 -2.281 -0.008 -4.564c0 -2.076 -0.009 -4.152 -0.019 -6.228l0.005 -1.825c-0.026 -3.293 -0.245 -6.097 -1.454 -9.179 -2.268 -1.511 -3.941 -1.496 -6.564 -1.54l-1.365 -0.038c-1.436 -0.038 -2.872 -0.068 -4.308 -0.097q-1.462 -0.036 -2.923 -0.075 -3.581 -0.091 -7.161 -0.165v-6.378l1.403 -0.087c2.111 -0.135 4.22 -0.283 6.33 -0.431l2.207 -0.136c6.011 -0.412 6.011 -0.412 10.947 -3.651 4.267 -7.679 2.889 -18.581 3.07 -27.105l0.083 -3.675q0.101 -4.46 0.196 -8.921" fill="#ffffff"/><path d="m644.212 200.733 2.402 -0.04c10.237 -0.043 18.661 2.172 26.275 9.15 2.282 2.348 3.374 3.724 3.348 7.079v1.973l-0.03 2.116 -0.008 2.177c-0.011 2.294 -0.034 4.587 -0.059 6.881a4114.796 4114.796 0 0 0 -0.027 4.666q-0.032 5.719 -0.093 11.438c-1.855 -1.841 -3.68 -3.694 -5.441 -5.625 -11.277 -12.264 -24.858 -24.939 -42.451 -25.862 -19.401 -0.443 -36.154 9.112 -50.323 21.92l-1.977 1.573c-2.182 2.212 -2.309 4.094 -2.36 7.121l0.026 1.936 -0.017 2.078c-0.015 2.297 -0.003 4.594 0.009 6.892q-0.008 2.47 -0.02 4.94a1607.781 1607.781 0 0 0 -0.01 10.636c0.011 5.126 0.002 10.252 -0.013 15.378 -0.024 8.317 -0.03 16.634 -0.026 24.951a10411.99 10411.99 0 0 1 -0.014 24.235l-0.003 1.51 -0.014 7.496A28200.893 28200.893 0 0 0 573.342 407.526q-4.111 0.018 -8.221 0.027l-2.331 0.011c-11.899 0.022 -24.777 -0.551 -34.091 -8.967 -7.309 -7.577 -8.501 -17.165 -8.444 -27.3l-0.004 -2.175c-0.002 -2.382 0.005 -4.764 0.012 -7.147v-5.149q-0.001 -5.526 0.01 -11.052c0.01 -5.327 0.013 -10.653 0.015 -15.98q0.004 -12.966 0.023 -25.931 0.018 -12.589 0.026 -25.177l0.001 -1.57 0.004 -7.797q0.021 -32.299 0.064 -64.599c2.416 -0.014 4.831 -0.022 7.247 -0.03l2.047 -0.012c12.714 -0.029 26.423 0.999 36.226 10.087 4.722 5.107 6.354 11.435 8.052 18.017l0.797 -0.835c2.748 -2.82 5.625 -5.288 8.769 -7.654l1.429 -1.081c17.8 -13.346 36.599 -22.384 59.238 -22.476" fill="#ffffff"/><path d="M296.556 207.908c5.585 4.928 5.585 4.928 5.893 7.818l-0.008 1.703v1.934l-0.02 2.084 -0.005 2.136c-0.007 2.255 -0.024 4.51 -0.04 6.765q-0.01 2.291 -0.017 4.582 -0.022 5.621 -0.063 11.242c-2.355 -1.085 -3.443 -2.227 -5.022 -4.305C287.409 229.555 273.385 216.839 257.015 214.923c-8.618 -0.675 -16.251 -0.196 -24.235 3.189l-1.362 0.57c-6.136 2.615 -11.735 5.695 -17.133 9.635l-1.244 0.899a566.964 566.964 0 0 0 -4.057 2.968l-1.272 0.932c-1.234 0.925 -2.432 1.884 -3.631 2.855l-1.191 0.923c-2.363 2.043 -3.55 3.538 -3.832 6.7 -0.024 1.24 -0.022 2.481 -0.002 3.721l-0.019 2.079c-0.016 2.296 0 4.591 0.015 6.886q-0.008 2.471 -0.021 4.941a1376.276 1376.276 0 0 0 -0.004 10.631c0.017 5.123 0.008 10.246 -0.006 15.37 -0.022 8.313 -0.024 16.626 -0.013 24.939a8910.077 8910.077 0 0 1 -0.004 25.73l-0.011 7.494c-0.033 20.714 -0.034 41.428 -0.013 62.142 -2.746 0.014 -5.491 0.022 -8.236 0.03l-2.337 0.012c-12.619 0.026 -25.163 -1.158 -34.908 -10.047 -5.819 -6.148 -7.013 -14.124 -6.969 -22.236l-0.003 -2.215c-0.002 -2.443 0.005 -4.886 0.012 -7.33q0.001 -2.631 0 -5.261 -0.001 -5.658 0.01 -11.318c0.01 -5.454 0.013 -10.909 0.015 -16.363q0.004 -13.276 0.023 -26.551 0.018 -12.893 0.026 -25.786l0.001 -1.607 0.004 -7.979q0.021 -33.078 0.064 -66.156 3.637 -0.018 7.274 -0.027l2.059 -0.011c11.355 -0.024 24.313 0.663 33.397 8.329l1.365 1.131c5.737 5.206 7.395 11.889 8.839 19.277l1.108 -1.221c12.337 -12.991 29.192 -23.187 46.325 -28.395l1.49 -0.453c14.967 -4.27 35.196 -5.675 48.015 4.559" fill="#ffffff"/><path d="M817.981 211.561A61.224 61.224 0 0 1 822.066 214.923l1.325 1.168c7.685 7.2 12.2 17.116 12.823 27.585 0.173 8.445 -1.114 16.439 -4.582 24.18l-0.805 2.012c-2.052 2.133 -2.564 2.112 -5.418 2.275 -1.585 0.011 -3.17 0 -4.755 -0.026q-1.311 -0.003 -2.621 0.001c-2.371 0.001 -4.74 -0.022 -7.111 -0.048 -2.478 -0.024 -4.955 -0.026 -7.433 -0.031 -4.691 -0.011 -9.382 -0.043 -14.073 -0.082 -5.341 -0.043 -10.682 -0.064 -16.024 -0.083 -10.986 -0.04 -21.973 -0.107 -32.959 -0.193q0.131 -2.703 0.272 -5.406l0.073 -1.523c0.976 -18.548 7.331 -37.33 20.983 -50.367 16.335 -13.791 38.467 -14.644 56.22 -2.827" fill="#000"/></svg>