<?xml version="1.0" encoding="UTF-8"?>
<svg version="1.1" xmlns="http://www.w3.org/2000/svg" width="2352" height="1048">

<path d="M0 0 C2.46935196 2.18756405 4.88602212 4.41973534 7.2890625 6.6796875 C8.19205078 7.48599609 8.19205078 7.48599609 9.11328125 8.30859375 C31.6110764 29.23311651 41.17576033 61.09345708 43.2890625 90.6796875 C-31.2909375 90.6796875 -105.8709375 90.6796875 -182.7109375 90.6796875 C-177.83019755 136.23326032 -166.81702113 179.3822058 -130.16162109 209.97265625 C-109.47297299 226.43745119 -84.1811374 236.45111282 -57.7109375 237.6796875 C-56.68097656 237.73253906 -55.65101563 237.78539062 -54.58984375 237.83984375 C-31.09600006 238.46453555 -6.96276361 231.83299151 10.8515625 215.9921875 C12.34366976 214.56812422 13.82498165 213.13254934 15.2890625 211.6796875 C16.1759375 210.8340625 17.0628125 209.9884375 17.9765625 209.1171875 C23.76747094 203.01325698 28.78812488 196.80205032 33.2890625 189.6796875 C34.72632469 193.99147406 33.01239523 197.09920271 31.4765625 201.1796875 C31.00440308 202.43978638 31.00440308 202.43978638 30.52270508 203.7253418 C23.10285349 222.89701028 12.52666406 239.8448711 -1.7109375 254.6796875 C-2.54109375 255.57300781 -3.37125 256.46632813 -4.2265625 257.38671875 C-11.0810941 264.55190895 -18.41405164 270.29129561 -26.7109375 275.6796875 C-27.78859375 276.37964844 -28.86625 277.07960938 -29.9765625 277.80078125 C-61.17858631 296.7659924 -101.31503436 301.92114896 -136.765625 293.92578125 C-138.41607372 293.51848167 -140.06459668 293.10328619 -141.7109375 292.6796875 C-142.50145508 292.48133301 -143.29197266 292.28297852 -144.10644531 292.07861328 C-167.48365464 286.00479101 -188.47045924 274.34503941 -206.7109375 258.6796875 C-207.99484375 257.58140625 -207.99484375 257.58140625 -209.3046875 256.4609375 C-231.86245347 236.68808091 -246.51691397 210.86387471 -254.9609375 182.3046875 C-255.19514404 181.52843018 -255.42935059 180.75217285 -255.6706543 179.95239258 C-260.09226443 164.23023135 -261.26590668 148.37391632 -261.1484375 132.1171875 C-261.14506378 131.2044809 -261.14169006 130.29177429 -261.13821411 129.35140991 C-260.90070702 84.78993037 -248.1228125 42.20529934 -216.3359375 9.9296875 C-160.79616678 -44.68754992 -59.76773964 -51.15567341 0 0 Z " fill="#000000" transform="translate(1343.7109375,345.3203125)"/>
<path d="M0 0 C26.81278409 0 26.81278409 0 36.75 1.1875 C38.49204712 1.38714355 38.49204712 1.38714355 40.26928711 1.59082031 C130.78178576 12.51316273 219.52374162 57.00659837 279 127 C279.88952965 128.01528364 280.78025986 129.02951608 281.671875 130.04296875 C303.68889965 155.19333915 320.96388136 183.2434677 336 213 C336.38575195 213.76070801 336.77150391 214.52141602 337.16894531 215.30517578 C352.23968577 245.30054149 361.64890767 278.14609322 368 311 C368.33 311 368.66 311 369 311 C369.1451001 310.30777344 369.2902002 309.61554688 369.43969727 308.90234375 C385.19223371 234.38002096 418.35815344 169.60686515 470.3125 114 C470.95791748 113.30608154 471.60333496 112.61216309 472.26831055 111.8972168 C476.04434933 107.89402605 479.96298728 104.18515275 484.14038086 100.60351562 C486.70467563 98.39237108 489.15750439 96.06816591 491.625 93.75 C498.10498101 87.75536801 504.96524041 82.32523736 512 77 C512.59683594 76.54625 513.19367187 76.0925 513.80859375 75.625 C570.18529719 32.94844169 637.16375471 7.65816014 707.4375 0.75 C708.22769531 0.66967529 709.01789062 0.58935059 709.83203125 0.5065918 C718.9298547 -0.28376321 727.77734819 0 737 0 C737 47.85 737 95.7 737 145 C736.67 145 736.34 145 736 145 C735.90203125 143.80246094 735.8040625 142.60492188 735.703125 141.37109375 C734.3709786 126.38328632 731.47410978 112.71397449 725 99 C724.45859375 97.83984375 723.9171875 96.6796875 723.359375 95.484375 C710.37925336 68.89198294 687.12713978 49.74369732 659.55078125 39.75 C656.38539485 38.73108272 653.21968712 37.82994526 650 37 C649.16984375 36.77441406 648.3396875 36.54882812 647.484375 36.31640625 C611.66796997 28.15071642 577.76129974 46.69075864 548.35571289 64.93139648 C531.47686282 75.58039913 514.95274562 87.20308981 500.3359375 100.83984375 C498.39343422 102.63617204 496.4176254 104.36003374 494.41015625 106.08203125 C489.57672561 110.30004252 485.02606926 114.78785086 480.49145508 119.32324219 C479.07331716 120.73919947 477.64703335 122.14698289 476.22070312 123.5546875 C470.03676656 129.72573191 464.44282525 136.17326984 459 143 C457.95191602 144.2479612 456.89913862 145.4920094 455.83984375 146.73046875 C442.03039723 163.0775386 430.35582224 181.29482168 420 200 C419.54737793 200.80566406 419.09475586 201.61132812 418.62841797 202.44140625 C387.52128583 258.20086175 371.48279121 324.17997618 374 388 C374.04108887 389.05493652 374.08217773 390.10987305 374.12451172 391.19677734 C377.94271096 478.69819324 411.46494112 563.0947556 471.50390625 627.31640625 C473.80765664 629.79320831 476.02956946 632.32377906 478.25 634.875 C487.54561216 645.22011676 498.13308115 654.357568 509 663 C510.05771788 663.88204619 511.11361367 664.76628057 512.16796875 665.65234375 C533.04740729 683.02714657 556.7042748 697.39951681 581.17724609 709.12548828 C582.93198995 709.96737048 584.67906768 710.82517465 586.42578125 711.68359375 C600.98042666 718.67330969 615.59858019 722.4015607 631.75 722.3125 C632.79768555 722.30831055 633.84537109 722.30412109 634.92480469 722.29980469 C643.2824495 722.17875405 650.92123054 721.25658494 659 719 C660.49080078 718.59974609 660.49080078 718.59974609 662.01171875 718.19140625 C675.71667931 714.07442878 688.02261522 707.11122937 699 698 C700.29164063 696.95392578 700.29164063 696.95392578 701.609375 695.88671875 C720.92791225 679.47796118 732.92265523 654.6188787 735.3359375 629.50390625 C735.58820176 626.33696704 735.81111495 623.17128057 736 620 C736.33 620 736.66 620 737 620 C737 664.88 737 709.76 737 756 C710.18721591 756 710.18721591 756 700.25 754.8125 C699.08863525 754.6794043 697.92727051 754.54630859 696.73071289 754.40917969 C627.83129638 746.09493546 562.34441287 719.166196 508 676 C507.05511719 675.24976563 506.11023437 674.49953125 505.13671875 673.7265625 C499.42048015 669.11799672 493.94340681 664.29810599 488.54296875 659.32421875 C486.43648833 657.39894094 484.2998352 655.53405819 482.125 653.6875 C473.45320101 646.14214088 465.41331267 637.77398398 458 629 C457.11332609 627.98710059 456.22516699 626.97550034 455.3359375 625.96484375 C433.31318181 600.81515422 416.03781898 572.75888277 401 543 C400.61956543 542.24992676 400.23913086 541.49985352 399.84716797 540.72705078 C386.75587587 514.6737177 378.23231407 486.94079961 371.95214844 458.55078125 C370.8571127 453.60066213 369.75720037 448.76836533 368 444 C367.88519287 444.59611084 367.77038574 445.19222168 367.65209961 445.80639648 C354.59209935 512.82901628 325.86311685 574.15981088 281.25 625.9375 C280.73123291 626.54029785 280.21246582 627.1430957 279.67797852 627.76416016 C276.46680171 631.44704389 273.12128462 634.93949357 269.62280273 638.35083008 C267.92151239 640.07976287 266.36474 641.88690665 264.8125 643.75 C260.43939371 648.81927344 255.4567307 653.2160479 250.47705078 657.67138672 C249.13938388 658.87462363 247.81681071 660.09458854 246.49609375 661.31640625 C239.64572936 667.62506143 232.40477411 673.36329662 225 679 C224.10039551 679.68497559 224.10039551 679.68497559 223.18261719 680.38378906 C166.80539819 723.05336794 99.83278917 748.34217961 29.5625 755.25 C28.77230469 755.33032471 27.98210937 755.41064941 27.16796875 755.4934082 C18.0701453 756.28376321 9.22265181 756 0 756 C0 710.79 0 665.58 0 619 C0.33 619 0.66 619 1 619 C1.08636719 620.24652344 1.17273437 621.49304688 1.26171875 622.77734375 C3.12406353 646.50464828 10.63760988 666.00797497 25 685 C25.53882813 685.72445312 26.07765625 686.44890625 26.6328125 687.1953125 C42.87129604 707.3506162 69.88666282 718.95172724 95 722 C145.28725359 726.3006875 193.07783246 691.30352714 230 661 C231.41345703 659.86691406 231.41345703 659.86691406 232.85546875 658.7109375 C241.32106786 651.78586284 249.0691042 644.14659598 256.8125 636.4375 C257.34811554 635.90706085 257.88373108 635.3766217 258.43557739 634.83010864 C265.43162603 627.88736987 271.86033261 620.72548562 278 613 C279.04789888 611.75188337 280.10068773 610.50784205 281.16015625 609.26953125 C294.96492843 592.9279947 306.66811217 574.71260249 317 556 C317.69488525 554.75162354 317.69488525 554.75162354 318.40380859 553.47802734 C343.28837831 508.42032275 358.38404386 457.35956859 362 406 C362.05639648 405.20980469 362.11279297 404.41960937 362.17089844 403.60546875 C362.548503 398.0732268 362.81706043 392.54199285 363 387 C363.02336426 386.3085791 363.04672852 385.6171582 363.07080078 384.90478516 C365.79392257 289.22938839 327.91286895 197.1085042 264 127 C263.15953125 126.05511719 262.3190625 125.11023438 261.453125 124.13671875 C254.71960178 116.60290478 247.55179272 109.70805392 240 103 C239.46568359 102.52095215 238.93136719 102.0419043 238.38085938 101.54833984 C213.18695043 79.04289821 184.51352629 60.44572158 154 46 C153.34966797 45.68546875 152.69933594 45.3709375 152.02929688 45.046875 C127.26766162 33.14177352 101.15501515 31.23673389 75.05078125 40.35546875 C46.98128821 50.66685473 24.44636076 71.79178977 11.8203125 98.7734375 C5.14047389 113.81192888 1.897507 128.60868795 1 145 C0.67 145 0.34 145 0 145 C0 97.15 0 49.3 0 0 Z " fill="#000000" transform="translate(1198,99)"/>
<path d="M0 0 C40.09566903 -1.58804495 89.02803123 6.28970942 119.80126953 34.10498047 C129.06955092 43.09635362 134.7073964 53.42715761 135.17626953 66.47998047 C135.07146245 72.57276548 133.89628479 76.89503811 130.80126953 82.10498047 C130.16189453 83.23935547 129.52251953 84.37373047 128.86376953 85.54248047 C112.97984919 106.33597619 79.05571608 115.1644801 55.67126465 123.42089844 C37.51495057 129.84128486 19.4601068 136.40207935 1.80126953 144.10498047 C0.49101807 144.67539062 0.49101807 144.67539062 -0.84570312 145.25732422 C-17.16554257 152.45386604 -32.93191953 161.05810617 -46.19873047 173.10498047 C-46.97345703 173.78689453 -47.74818359 174.46880859 -48.54638672 175.17138672 C-62.90920009 188.54875835 -70.81077559 206.80061516 -71.51123047 226.35498047 C-71.07015093 245.45923804 -64.45337091 262.38847712 -50.63623047 275.79248047 C-33.98615422 290.0420856 -11.75107905 295.31520793 9.80126953 294.10498047 C40.21851379 291.59670597 65.16796968 275.81212489 85.16455078 253.30419922 C94.49846907 242.21464063 102.08416379 229.91095059 108.80126953 217.10498047 C109.31101318 216.14108398 109.31101318 216.14108398 109.83105469 215.15771484 C117.26925551 200.99987684 123.63109161 186.24135661 128.80126953 171.10498047 C130.12126953 171.10498047 131.44126953 171.10498047 132.80126953 171.10498047 C132.80365788 171.71421041 132.80604624 172.32344036 132.80850697 172.95113182 C132.86777152 187.809208 132.9433944 202.66713423 133.03698444 217.52503014 C133.08185482 224.71035668 133.12128938 231.89563464 133.14770508 239.08105469 C133.17075643 245.34750941 133.20423332 251.61380922 133.24997109 257.8801409 C133.27380783 261.19485092 133.29104315 264.50937722 133.29888344 267.82416916 C133.30854508 271.53437662 133.33663084 275.2440311 133.36889648 278.95410156 C133.36674385 280.58330536 133.36674385 280.58330536 133.36454773 282.24542236 C133.4641208 290.3732238 134.44168223 299.59691018 139.80126953 306.10498047 C146.26362688 311.53923551 153.81940278 310.47479669 161.80126953 310.10498047 C155.89142397 321.66065787 140.31229182 327.17931656 128.80126953 331.13623047 C113.68783073 335.38688513 95.48781489 335.1781524 81.41845703 327.86669922 C79.45209878 326.6948658 77.62792442 325.48298328 75.80126953 324.10498047 C74.97755859 323.49783203 74.15384766 322.89068359 73.30517578 322.26513672 C61.55409158 312.12730588 59.1877717 296.64500978 57.80126953 282.10498047 C57.28967285 282.47147705 56.77807617 282.83797363 56.25097656 283.21557617 C27.05279396 304.0653811 -2.93584439 321.85298536 -38.19873047 330.10498047 C-38.87838867 330.26869141 -39.55804687 330.43240234 -40.25830078 330.60107422 C-66.80449667 336.74567432 -95.51228969 335.18417342 -119.19873047 321.10498047 C-137.70607246 308.96496919 -150.48218936 291.25740442 -156.01123047 269.72998047 C-160.37958203 247.21424843 -156.72274573 224.69954507 -143.93701172 205.56201172 C-120.9349579 173.04899632 -76.02116784 161.25499 -40.32580566 148.6333313 C15.27582809 129.37138201 15.27582809 129.37138201 53.11376953 86.47607422 C59.26319711 72.39117208 59.57832836 55.24791216 54.08642578 40.87841797 C47.56011541 26.79428312 38.09487246 18.3964468 23.75097656 12.80517578 C2.51097541 5.17728656 -21.99347342 8.06116341 -42.23388672 17.16748047 C-57.65661707 24.4944728 -71.05126551 36.50305936 -81.19873047 50.10498047 C-82.0780325 51.23589405 -82.95828919 52.36606583 -83.83935547 53.49560547 C-91.01055908 62.82989318 -96.69094004 72.72400315 -102.19873047 83.10498047 C-102.92383765 84.44951634 -103.65033358 85.79330446 -104.37841797 87.13623047 C-105.99529786 90.12045231 -107.60095496 93.11047406 -109.19873047 96.10498047 C-109.52873047 96.10498047 -109.85873047 96.10498047 -110.19873047 96.10498047 C-110.66501824 88.36121996 -111.01880349 80.62081042 -111.23497391 72.86648941 C-111.33883867 69.26333154 -111.47908865 65.6698462 -111.70751953 62.07226562 C-113.13794633 38.94379525 -113.13794633 38.94379525 -108.32321167 32.65542603 C-103.68844596 28.65934898 -98.50926151 26.24466253 -92.81387329 24.11512756 C-89.37847668 22.78814233 -86.173664 21.11742738 -82.91847229 19.40332031 C-57.2534211 6.18748092 -28.54064448 1.3627001 0 0 Z " fill="#000000" transform="translate(619.19873046875,308.89501953125)"/>
<path d="M0 0 C4.83945349 1.54602259 9.67285962 3.10941446 14.50195312 4.6875 C16.13720577 5.21937263 17.77388278 5.74689054 19.41210938 6.26953125 C34.17467819 10.98484807 48.47709385 16.65494961 61 26 C62.051875 26.78375 63.10375 27.5675 64.1875 28.375 C76.32382657 39.70223813 79.75288473 52.78750155 81 69 C100.8 69 120.6 69 141 69 C141 72.3 141 75.6 141 79 C121.2 79 101.4 79 81 79 C81.06142807 111.93528709 81.13350686 144.87047031 81.22898628 177.80567165 C81.24025398 181.69702622 81.25139251 185.58838116 81.26245117 189.47973633 C81.26465486 190.25441075 81.26685854 191.02908518 81.269129 191.82723459 C81.30446805 204.35838775 81.32935132 216.88954086 81.35034702 229.42072532 C81.37213613 242.2860094 81.40521601 255.15122901 81.44870156 268.01645821 C81.47516479 275.95022942 81.49289936 283.88392035 81.49934604 291.81773349 C81.50524074 297.90903984 81.52687071 304.00018846 81.55427551 310.0914402 C81.56305263 312.58465814 81.566779 315.0778999 81.56500816 317.57113266 C81.56335025 320.98316283 81.58009977 324.39464063 81.60127258 327.80659485 C81.59642501 328.78620015 81.59157743 329.76580545 81.58658296 330.77509576 C81.68219849 340.15394566 83.30241746 350.91601847 90 358 C99.93994711 365.16260894 111.51843209 365.69087765 123.23828125 363.8359375 C130.10732145 362.30948412 136.7088719 359.99249208 142.7421875 356.33984375 C145 355 145 355 147 355 C140.07479507 370.71353607 117.9910047 381.94763366 102.71875 387.88720703 C97.53964376 389.80239736 92.30688939 391.47723507 87 393 C85.60974609 393.4021875 85.60974609 393.4021875 84.19140625 393.8125 C65.8411236 398.04040512 44.88022847 395.75025054 28.70654297 386.12011719 C20.52835994 380.75223396 13.74239479 373.54585906 9 365 C8.63648438 364.37996094 8.27296875 363.75992187 7.8984375 363.12109375 C1.88857727 352.13360119 -0.14979624 340.21845787 -0.14476013 327.87257385 C-0.1500504 326.34708566 -0.1500504 326.34708566 -0.15544754 324.79077953 C-0.16611794 321.38468498 -0.16981262 317.97861841 -0.17358398 314.57250977 C-0.17989044 312.12981041 -0.18665635 309.6871122 -0.19384766 307.24441528 C-0.20850974 301.9848774 -0.2203177 296.72534112 -0.22979546 291.4657917 C-0.24369073 283.85378463 -0.26488148 276.24181049 -0.28822399 268.62982713 C-0.32611491 256.26909499 -0.36108657 243.9083569 -0.39282227 231.54760742 C-0.39472276 230.80817353 -0.39662325 230.06873963 -0.39858133 229.30689865 C-0.42541642 218.81212179 -0.44929223 208.31734026 -0.47196633 197.82255369 C-0.47356363 197.08342298 -0.47516094 196.34429228 -0.47680664 195.58276367 C-0.47840011 194.84453594 -0.47999357 194.1063082 -0.48163532 193.34570993 C-0.50841295 181.03171661 -0.54281423 168.71775859 -0.58346039 156.40380329 C-0.60821391 148.81204404 -0.62655257 141.22032273 -0.636616 133.62852954 C-0.64488815 127.81096865 -0.6633909 121.99347535 -0.68567657 116.17595291 C-0.69315377 113.79069911 -0.69723324 111.40543188 -0.69767189 109.0201664 C-0.69875402 105.76481017 -0.71199861 102.50972048 -0.72825623 99.25440979 C-0.72563937 98.31004627 -0.72302252 97.36568276 -0.72032636 96.39270216 C-0.76061492 91.23013724 -1.10436164 86.83271753 -3 82 C-6.55603368 79.62931088 -9.17993345 79.65534892 -13.29296875 79.5859375 C-13.99899734 79.56657135 -14.70502594 79.5472052 -15.43244934 79.5272522 C-17.68401061 79.46754776 -19.93562328 79.4211086 -22.1875 79.375 C-23.71551689 79.33681171 -25.24351245 79.29775948 -26.77148438 79.2578125 C-30.51414935 79.16185404 -34.2569151 79.07778989 -38 79 C-38 75.7 -38 72.4 -38 69 C-36.91114502 68.93268677 -36.91114502 68.93268677 -35.80029297 68.86401367 C-32.49085052 68.65185638 -29.18308209 68.41987081 -25.875 68.1875 C-24.16183594 68.08211914 -24.16183594 68.08211914 -22.4140625 67.97460938 C-12.98856153 67.32879136 -12.98856153 67.32879136 -5.25 62.25 C1.43965348 50.20862374 -0.72020641 33.114513 -0.4375 19.75 C-0.39421155 17.82941959 -0.35059435 15.90884655 -0.30664062 13.98828125 C-0.20063784 9.32559724 -0.09908049 4.66283603 0 0 Z " fill="#000000" transform="translate(1941,279)"/>
<path d="M0 0 C1.24265625 -0.020625 2.4853125 -0.04125 3.765625 -0.0625 C19.8171095 -0.12952081 33.02727794 3.34419303 44.96484375 14.28515625 C48.54325793 17.96601991 50.2546357 20.12572588 50.21557617 25.38574219 C50.21534958 26.40649841 50.21512299 27.42725464 50.21488953 28.47894287 C50.19940567 29.57386047 50.18392181 30.66877808 50.16796875 31.796875 C50.16372391 32.9232135 50.15947906 34.049552 50.15510559 35.21002197 C50.13831497 38.80692463 50.10066099 42.40326672 50.0625 46 C50.04745371 48.43879399 50.03376521 50.87759677 50.02148438 53.31640625 C49.98841015 59.29446205 49.93820643 65.27219097 49.875 71.25 C46.96617049 68.36422676 44.10364744 65.45812835 41.34375 62.4296875 C23.66205205 43.20075737 2.36730985 23.32532734 -25.21875 21.87890625 C-55.63920483 21.18537134 -81.90788195 36.16631382 -104.125 56.25 C-105.14799761 57.06396051 -106.17099522 57.87792103 -107.22499275 58.71654701 C-110.64645993 62.18596032 -110.8464621 65.1359957 -110.92566097 69.88184392 C-110.91207487 70.88379533 -110.89848877 71.88574673 -110.88449097 72.9180603 C-110.89370107 73.99307757 -110.90291117 75.06809484 -110.91240036 76.17568839 C-110.93599677 79.7782672 -110.916864 83.37934579 -110.89794922 86.98193359 C-110.90611879 89.56407597 -110.91692048 92.14621117 -110.93016052 94.72833252 C-110.95451026 100.28755963 -110.95700441 105.84645026 -110.94457626 111.40571213 C-110.92663922 119.44335593 -110.94178425 127.48067082 -110.96495558 135.51828881 C-111.00165464 148.55925607 -111.01166814 161.60010148 -111.00488281 174.64111328 C-110.99834942 187.30782209 -111.0043945 199.97442209 -111.02734375 212.64111328 C-111.0287544 213.42212978 -111.03016506 214.20314628 -111.03161846 215.00782995 C-111.03877299 218.92603321 -111.04617468 222.84423597 -111.05369925 226.76243854 C-111.11578513 259.25830894 -111.13455576 291.75407046 -111.125 324.25 C-115.42186808 324.27017349 -119.71872375 324.28225294 -124.015625 324.29296875 C-125.82474365 324.3016095 -125.82474365 324.3016095 -127.67041016 324.3104248 C-146.32818716 324.34525772 -166.52134351 323.44639505 -181.125 310.25 C-192.58573027 298.36889546 -194.45563843 283.33582358 -194.36550903 267.44281006 C-194.36721788 266.31774717 -194.36892673 265.19268427 -194.37068737 264.03352857 C-194.37395766 260.29800182 -194.36301928 256.56265838 -194.35205078 252.82714844 C-194.35148613 250.13575336 -194.3517164 247.44436921 -194.35293579 244.75297546 C-194.35398015 238.97621546 -194.34775079 233.19950094 -194.33646011 227.42275238 C-194.32014678 219.07074028 -194.31499116 210.71874999 -194.31248413 202.36672369 C-194.30811614 188.81331768 -194.29483146 175.25993586 -194.27587891 161.70654297 C-194.25749684 148.5473645 -194.24335175 135.38819263 -194.23486328 122.22900391 C-194.23433783 121.4167068 -194.23381239 120.60440968 -194.23327102 119.76749751 C-194.23066078 115.69209371 -194.2281334 111.61668987 -194.22564721 107.54128599 C-194.20494264 73.77750646 -194.16974164 40.0137562 -194.125 6.25 C-190.33724903 6.22791713 -186.549515 6.21479044 -182.76171875 6.203125 C-181.17272766 6.19369873 -181.17272766 6.19369873 -179.55163574 6.18408203 C-159.61654622 6.1381927 -138.12022948 7.75021716 -122.75 22 C-115.34643249 30.00794037 -112.78657406 39.93082461 -110.125 50.25 C-109.7125 49.81792236 -109.3 49.38584473 -108.875 48.94067383 C-104.56621415 44.51827742 -100.0546269 40.64759649 -95.125 36.9375 C-94.38588379 36.37844971 -93.64676758 35.81939941 -92.88525391 35.2434082 C-64.97353277 14.31707719 -35.49782076 0.14459397 0 0 Z " fill="#000000" transform="translate(1010.125,314.75)"/>
<path d="M0 0 C8.75796174 7.72668002 8.75796174 7.72668002 9.24050903 12.25895691 C9.23606781 13.1405397 9.23162659 14.0221225 9.22705078 14.93041992 C9.22682419 16.43163643 9.22682419 16.43163643 9.22659302 17.96318054 C9.21627045 19.04138565 9.20594788 20.11959076 9.1953125 21.23046875 C9.1924826 22.33602615 9.18965271 23.44158356 9.18673706 24.5806427 C9.17553002 28.11637128 9.15042427 31.6518478 9.125 35.1875 C9.11497089 37.58267864 9.10584492 39.97786124 9.09765625 42.37304688 C9.07558897 48.24878411 9.04210618 54.12437405 9 60 C5.30704354 58.2976208 3.60189738 56.50755375 1.125 53.25 C-14.34161984 33.94199746 -36.33220811 14.00275631 -62 11 C-75.51266107 9.94212806 -87.48240217 10.69298569 -100 16 C-100.70495605 16.29471191 -101.40991211 16.58942383 -102.13623047 16.89306641 C-111.75744378 20.99268821 -120.53560982 25.82184586 -129 32 C-129.64388672 32.46486816 -130.28777344 32.92973633 -130.95117188 33.40869141 C-133.07954681 34.94943254 -135.19787469 36.50294865 -137.3125 38.0625 C-137.97064697 38.54493164 -138.62879395 39.02736328 -139.30688477 39.52441406 C-141.24165779 40.97518812 -143.12068535 42.47816585 -145 44 C-145.61633334 44.47771207 -146.23266668 44.95542415 -146.86767679 45.44761235 C-150.57285899 48.6516969 -152.43481879 50.99506248 -152.87695217 55.9530859 C-152.91351504 57.89781875 -152.91186369 59.84350348 -152.87974548 61.78831482 C-152.89484227 63.40212236 -152.89484227 63.40212236 -152.91024405 65.04853207 C-152.9354559 68.64820902 -152.91087161 72.24580206 -152.88647461 75.84545898 C-152.89436344 78.42775035 -152.90532436 81.01003389 -152.91912842 83.59230042 C-152.94398764 89.14883274 -152.94337323 94.70488997 -152.92530632 100.26144218 C-152.8992222 108.29511437 -152.91178955 116.32836316 -152.93369765 124.36203087 C-152.9681988 137.39692408 -152.97157462 150.43163126 -152.95532227 163.46655273 C-152.93960431 176.12643046 -152.93857896 188.78616922 -152.95727539 201.44604492 C-152.95842332 202.2267987 -152.95957125 203.00755248 -152.96075397 203.81196546 C-152.9666035 207.72889808 -152.97274147 211.64583019 -152.97902286 215.56276214 C-153.030735 248.04189263 -153.03191088 280.52084234 -153 313 C-157.30467929 313.02199113 -161.60934389 313.03517967 -165.9140625 313.046875 C-167.72789429 313.05630127 -167.72789429 313.05630127 -169.57836914 313.06591797 C-189.36488803 313.10617538 -209.03435052 311.250961 -224.3125 297.3125 C-233.43651912 287.67237474 -235.31026726 275.16596191 -235.24050903 262.44604492 C-235.24307231 260.72682516 -235.24307231 260.72682516 -235.24568737 258.97287369 C-235.24897501 255.14200793 -235.23799032 251.3113183 -235.22705078 247.48046875 C-235.2253718 244.73055409 -235.22671553 241.98064285 -235.22793579 239.23072815 C-235.22898261 233.31529933 -235.22272724 227.39991476 -235.21146011 221.48449707 C-235.19518055 212.93188648 -235.1899946 204.3792972 -235.18748413 195.82667279 C-235.18311088 181.94937782 -235.16981182 168.07210641 -235.15087891 154.19482422 C-235.13251053 140.71728635 -235.11835871 127.23975489 -235.10986328 113.76220703 C-235.10933783 112.93093705 -235.10881239 112.09966707 -235.10827102 111.2432071 C-235.10566087 107.07281633 -235.10313347 102.90242552 -235.10064721 98.73203468 C-235.07992623 64.154673 -235.04471078 29.57733867 -235 -5 C-231.19792454 -5.02021118 -227.39586318 -5.03226523 -223.59375 -5.04296875 C-222.52866211 -5.04872925 -221.46357422 -5.05448975 -220.36621094 -5.0604248 C-202.56073961 -5.09791718 -182.24297827 -4.02107366 -168 8 C-167.29359375 8.58523438 -166.5871875 9.17046875 -165.859375 9.7734375 C-156.86432296 17.93561435 -154.2654725 28.41477885 -152 40 C-151.42636719 39.36835938 -150.85273438 38.73671875 -150.26171875 38.0859375 C-130.91822348 17.71509422 -104.4893356 1.72788129 -77.625 -6.4375 C-76.85389893 -6.67235107 -76.08279785 -6.90720215 -75.28833008 -7.14916992 C-51.81932569 -13.84362349 -20.10094505 -16.04725447 0 0 Z " fill="#000000" transform="translate(465,326)"/>
<path d="M0 0 C2.23057371 1.67293028 4.32735902 3.41613374 6.40625 5.2734375 C7.09203125 5.87800781 7.7778125 6.48257812 8.484375 7.10546875 C20.5338594 18.39611157 27.61320178 33.94347801 28.58984375 50.359375 C28.86236767 63.60083135 26.84414462 76.13581635 21.40625 88.2734375 C20.98962097 89.31448639 20.57299194 90.35553528 20.14373779 91.4281311 C16.92620301 94.7723916 16.12291005 94.74061927 11.64825439 94.9949646 C9.16298865 95.0124091 6.67735986 94.99629379 4.19238281 94.95458984 C2.82235285 94.95289703 1.45231745 94.95384813 0.08229065 94.95724487 C-3.63477316 94.95896674 -7.35067575 94.92368806 -11.0674696 94.88180113 C-14.95249229 94.84429782 -18.83754151 94.84076913 -22.72271729 94.83364868 C-30.07873731 94.81499848 -37.43422242 94.76575969 -44.79000688 94.70555174 C-53.16471348 94.63849155 -61.5394456 94.60549894 -69.91435385 94.57537913 C-87.14112866 94.51266031 -104.36738278 94.40712253 -121.59375 94.2734375 C-121.45645511 91.4476246 -121.31371695 88.62225452 -121.16796875 85.796875 C-121.13022339 85.00853271 -121.09247803 84.22019043 -121.05358887 83.40795898 C-119.52412366 54.32573754 -109.55892678 24.87558205 -88.15234375 4.43359375 C-62.53876314 -17.19130713 -27.83530909 -18.52892563 0 0 Z " fill="#fff" transform="translate(1282.59375,331.7265625)"/>
</svg>
