<svg xmlns="http://www.w3.org/2000/svg" version="1.1" viewBox="1198 98.95 737 756.1">

<path d="M0 0 C26.81278409 0 26.81278409 0 36.75 1.1875 C38.49204712 1.38714355 38.49204712 1.38714355 40.26928711 1.59082031 C130.78178576 12.51316273 219.52374162 57.00659837 279 127 C279.88952965 128.01528364 280.78025986 129.02951608 281.671875 130.04296875 C303.68889965 155.19333915 320.96388136 183.2434677 336 213 C336.38575195 213.76070801 336.77150391 214.52141602 337.16894531 215.30517578 C352.23968577 245.30054149 361.64890767 278.14609322 368 311 C368.33 311 368.66 311 369 311 C369.1451001 310.30777344 369.2902002 309.61554688 369.43969727 308.90234375 C385.19223371 234.38002096 418.35815344 169.60686515 470.3125 114 C470.95791748 113.30608154 471.60333496 112.61216309 472.26831055 111.8972168 C476.04434933 107.89402605 479.96298728 104.18515275 484.14038086 100.60351562 C486.70467563 98.39237108 489.15750439 96.06816591 491.625 93.75 C498.10498101 87.75536801 504.96524041 82.32523736 512 77 C512.59683594 76.54625 513.19367187 76.0925 513.80859375 75.625 C570.18529719 32.94844169 637.16375471 7.65816014 707.4375 0.75 C708.22769531 0.66967529 709.01789062 0.58935059 709.83203125 0.5065918 C718.9298547 -0.28376321 727.77734819 0 737 0 C737 47.85 737 95.7 737 145 C736.67 145 736.34 145 736 145 C735.90203125 143.80246094 735.8040625 142.60492188 735.703125 141.37109375 C734.3709786 126.38328632 731.47410978 112.71397449 725 99 C724.45859375 97.83984375 723.9171875 96.6796875 723.359375 95.484375 C710.37925336 68.89198294 687.12713978 49.74369732 659.55078125 39.75 C656.38539485 38.73108272 653.21968712 37.82994526 650 37 C649.16984375 36.77441406 648.3396875 36.54882812 647.484375 36.31640625 C611.66796997 28.15071642 577.76129974 46.69075864 548.35571289 64.93139648 C531.47686282 75.58039913 514.95274562 87.20308981 500.3359375 100.83984375 C498.39343422 102.63617204 496.4176254 104.36003374 494.41015625 106.08203125 C489.57672561 110.30004252 485.02606926 114.78785086 480.49145508 119.32324219 C479.07331716 120.73919947 477.64703335 122.14698289 476.22070312 123.5546875 C470.03676656 129.72573191 464.44282525 136.17326984 459 143 C457.95191602 144.2479612 456.89913862 145.4920094 455.83984375 146.73046875 C442.03039723 163.0775386 430.35582224 181.29482168 420 200 C419.54737793 200.80566406 419.09475586 201.61132812 418.62841797 202.44140625 C387.52128583 258.20086175 371.48279121 324.17997618 374 388 C374.04108887 389.05493652 374.08217773 390.10987305 374.12451172 391.19677734 C377.94271096 478.69819324 411.46494112 563.0947556 471.50390625 627.31640625 C473.80765664 629.79320831 476.02956946 632.32377906 478.25 634.875 C487.54561216 645.22011676 498.13308115 654.357568 509 663 C510.05771788 663.88204619 511.11361367 664.76628057 512.16796875 665.65234375 C533.04740729 683.02714657 556.7042748 697.39951681 581.17724609 709.12548828 C582.93198995 709.96737048 584.67906768 710.82517465 586.42578125 711.68359375 C600.98042666 718.67330969 615.59858019 722.4015607 631.75 722.3125 C632.79768555 722.30831055 633.84537109 722.30412109 634.92480469 722.29980469 C643.2824495 722.17875405 650.92123054 721.25658494 659 719 C660.49080078 718.59974609 660.49080078 718.59974609 662.01171875 718.19140625 C675.71667931 714.07442878 688.02261522 707.11122937 699 698 C700.29164063 696.95392578 700.29164063 696.95392578 701.609375 695.88671875 C720.92791225 679.47796118 732.92265523 654.6188787 735.3359375 629.50390625 C735.58820176 626.33696704 735.81111495 623.17128057 736 620 C736.33 620 736.66 620 737 620 C737 664.88 737 709.76 737 756 C710.18721591 756 710.18721591 756 700.25 754.8125 C699.08863525 754.6794043 697.92727051 754.54630859 696.73071289 754.40917969 C627.83129638 746.09493546 562.34441287 719.166196 508 676 C507.05511719 675.24976563 506.11023437 674.49953125 505.13671875 673.7265625 C499.42048015 669.11799672 493.94340681 664.29810599 488.54296875 659.32421875 C486.43648833 657.39894094 484.2998352 655.53405819 482.125 653.6875 C473.45320101 646.14214088 465.41331267 637.77398398 458 629 C457.11332609 627.98710059 456.22516699 626.97550034 455.3359375 625.96484375 C433.31318181 600.81515422 416.03781898 572.75888277 401 543 C400.61956543 542.24992676 400.23913086 541.49985352 399.84716797 540.72705078 C386.75587587 514.6737177 378.23231407 486.94079961 371.95214844 458.55078125 C370.8571127 453.60066213 369.75720037 448.76836533 368 444 C367.88519287 444.59611084 367.77038574 445.19222168 367.65209961 445.80639648 C354.59209935 512.82901628 325.86311685 574.15981088 281.25 625.9375 C280.73123291 626.54029785 280.21246582 627.1430957 279.67797852 627.76416016 C276.46680171 631.44704389 273.12128462 634.93949357 269.62280273 638.35083008 C267.92151239 640.07976287 266.36474 641.88690665 264.8125 643.75 C260.43939371 648.81927344 255.4567307 653.2160479 250.47705078 657.67138672 C249.13938388 658.87462363 247.81681071 660.09458854 246.49609375 661.31640625 C239.64572936 667.62506143 232.40477411 673.36329662 225 679 C224.10039551 679.68497559 224.10039551 679.68497559 223.18261719 680.38378906 C166.80539819 723.05336794 99.83278917 748.34217961 29.5625 755.25 C28.77230469 755.33032471 27.98210937 755.41064941 27.16796875 755.4934082 C18.0701453 756.28376321 9.22265181 756 0 756 C0 710.79 0 665.58 0 619 C0.33 619 0.66 619 1 619 C1.08636719 620.24652344 1.17273437 621.49304688 1.26171875 622.77734375 C3.12406353 646.50464828 10.63760988 666.00797497 25 685 C25.53882813 685.72445312 26.07765625 686.44890625 26.6328125 687.1953125 C42.87129604 707.3506162 69.88666282 718.95172724 95 722 C145.28725359 726.3006875 193.07783246 691.30352714 230 661 C231.41345703 659.86691406 231.41345703 659.86691406 232.85546875 658.7109375 C241.32106786 651.78586284 249.0691042 644.14659598 256.8125 636.4375 C257.34811554 635.90706085 257.88373108 635.3766217 258.43557739 634.83010864 C265.43162603 627.88736987 271.86033261 620.72548562 278 613 C279.04789888 611.75188337 280.10068773 610.50784205 281.16015625 609.26953125 C294.96492843 592.9279947 306.66811217 574.71260249 317 556 C317.69488525 554.75162354 317.69488525 554.75162354 318.40380859 553.47802734 C343.28837831 508.42032275 358.38404386 457.35956859 362 406 C362.05639648 405.20980469 362.11279297 404.41960937 362.17089844 403.60546875 C362.548503 398.0732268 362.81706043 392.54199285 363 387 C363.02336426 386.3085791 363.04672852 385.6171582 363.07080078 384.90478516 C365.79392257 289.22938839 327.91286895 197.1085042 264 127 C263.15953125 126.05511719 262.3190625 125.11023438 261.453125 124.13671875 C254.71960178 116.60290478 247.55179272 109.70805392 240 103 C239.46568359 102.52095215 238.93136719 102.0419043 238.38085938 101.54833984 C213.18695043 79.04289821 184.51352629 60.44572158 154 46 C153.34966797 45.68546875 152.69933594 45.3709375 152.02929688 45.046875 C127.26766162 33.14177352 101.15501515 31.23673389 75.05078125 40.35546875 C46.98128821 50.66685473 24.44636076 71.79178977 11.8203125 98.7734375 C5.14047389 113.81192888 1.897507 128.60868795 1 145 C0.67 145 0.34 145 0 145 C0 97.15 0 49.3 0 0 Z " fill="#000" transform="translate(1198,99)"/>
</svg>